<?xml version="1.0" standalone="no"?><!DOCTYPE svg PUBLIC "-//W3C//DTD SVG 1.1//EN" "http://www.w3.org/Graphics/SVG/1.1/DTD/svg11.dtd"><svg class="icon" width="32px" height="32.00px" viewBox="0 0 1024 1024" version="1.1" xmlns="http://www.w3.org/2000/svg"><path fill="#0F1E31" d="M507.800474 709.12c-16.384 0-28.16-11.776-28.16-28.16v-157.696c-24.064-1.024-48.128-4.096-71.68-8.192-21.504 65.024-79.36 132.608-98.816 152.064-4.096 4.096-10.752 6.656-17.92 6.656-7.68 0-13.824-2.56-19.968-8.192-11.264-11.264-11.264-28.672 0-39.424 17.92-17.92 65.024-72.704 82.432-123.392-29.184-8.704-56.32-19.456-81.408-32.256-28.16 37.888-77.824 95.232-128.512 106.496h-5.632c-13.824 0-25.088-9.216-28.16-22.528-1.536-7.68 0-15.872 4.608-22.016 4.096-6.144 10.752-10.24 17.92-11.264 26.624-5.632 64.512-43.52 91.136-79.872-22.016-15.872-40.96-33.28-56.32-52.224-43.52 26.624-83.456 40.448-119.296 40.448-7.68 0-17.408 0-25.6-2.048C7.576474 424.448-2.151526 410.112 0.408474 394.24c2.56-13.824 14.848-23.04 28.16-23.04 1.536 0 3.584 0 5.12 0.512 5.12 1.024 10.752 1.536 16.384 1.536 27.136 0 59.904-12.288 95.232-35.84 2.048-5.632 6.144-10.752 11.776-13.824 4.608-3.072 10.24-4.608 15.872-4.608 4.608 0 9.216 1.024 13.312 3.584 5.12 1.536 9.728 4.608 12.8 8.704 3.584 4.096 6.144 8.704 6.656 14.336 57.344 74.752 175.104 122.88 301.568 122.88h1.536c137.216 0 263.168-56.32 314.368-139.264 5.12-8.192 13.824-13.312 23.552-13.312 3.072 0 6.144 0.512 8.704 1.536h0.512c2.56 1.024 4.608 1.536 6.656 3.072s4.096 3.072 6.144 5.12c11.264 8.704 60.416 43.008 105.984 43.008 5.632 0 10.752-0.512 15.872-1.536 1.536-0.512 3.584-0.512 5.632-0.512 13.824 0 26.112 9.728 28.16 23.04 1.536 7.168 0 15.36-4.608 22.016-4.096 6.144-10.752 10.24-17.92 11.264-9.728 2.048-17.408 2.048-26.624 2.048-48.64 0-93.696-23.04-120.832-40.448-15.36 19.456-33.792 37.376-55.296 53.248 33.792 44.544 67.072 73.728 90.112 78.848 14.336 3.072 25.088 18.944 22.528 33.792-2.56 13.312-13.824 22.528-28.16 22.528h-5.632c-50.688-10.752-99.328-67.072-126.976-103.936-25.6 13.824-53.248 25.088-82.944 33.792 19.968 50.176 66.56 103.936 80.896 119.808 5.12 5.12 8.192 12.288 8.192 19.456 0 6.656-2.56 13.312-7.168 18.432-2.56 4.096-8.192 9.728-18.944 9.728-7.68 0-14.336-2.56-19.968-8.192-25.088-25.088-75.776-86.016-97.28-145.408-25.088 4.608-50.688 7.68-76.8 8.704V680.96c-1.024 15.36-13.312 28.16-29.184 28.16z"  /></svg>