<?xml version="1.0" standalone="no"?><!DOCTYPE svg PUBLIC "-//W3C//DTD SVG 1.1//EN" "http://www.w3.org/Graphics/SVG/1.1/DTD/svg11.dtd"><svg class="icon" width="32px" height="32.00px" viewBox="0 0 1024 1024" version="1.1" xmlns="http://www.w3.org/2000/svg"><path fill="#0F1E31" d="M871.6288 1024 144.9984 1024C100.096 1024 76.7488 992.2048 76.7488 949.0432L76.7488 513.4336C76.7488 475.2384 103.936 439.9104 146.176 439.9104 151.9104 439.9104 215.808 439.0912 221.7472 439.0912L221.7472 285.952C221.7472 119.808 336.8448 0.2048 512.768 0.1024 688.4352 0.2048 801.3824 114.0224 801.3824 285.952L801.3824 440.2688C810.8032 440.2688 860.8768 439.9104 869.5808 439.9104 932.3008 439.9104 946.8416 480.2048 946.8416 523.3664L946.8416 936.8576C946.8416 992.8704 906.752 1024 871.6288 1024ZM415.2832 831.0784C415.2832 884.992 458.5984 928.6656 512 928.6656 565.4016 928.6656 608.7168 884.992 608.7168 831.0784L608.7168 829.5424C608.7168 793.5488 589.1584 762.4192 560.3328 745.5232L560.3328 564.992C560.3328 539.2896 535.1936 536.7808 509.7472 536.7808 484.2496 536.7808 463.616 539.2896 463.616 564.992L463.616 745.5232C434.8416 762.4192 415.2832 793.5488 415.2832 829.5424L415.2832 831.0784ZM705.9456 242.4832C705.9456 144.6912 605.0816 97.024 524.3392 97.024L506.7264 97.024C426.0864 97.024 319.1296 148.2752 319.1296 242.4832L319.1296 438.7328 705.9456 438.7328 705.9456 242.4832ZM513.024 0.0512C512.9728 0.0512 512.8704 0.1024 512.768 0.1024 512.6656 0.1024 512.5632 0.0512 512.4608 0.0512L513.024 0.0512Z" /></svg>